<?xml version="1.0" encoding="utf-8"?>
<!-- Generator: Adobe Illustrator 21.0.2, SVG Export Plug-In . SVG Version: 6.00 Build 0)  -->
<svg version="1.1" id="Capa_1" xmlns="http://www.w3.org/2000/svg" xmlns:xlink="http://www.w3.org/1999/xlink" x="0px" y="0px"
	 viewBox="0 0 792 612" style="enable-background:new 0 0 792 612;" xml:space="preserve">
<style type="text/css">
	.st0{fill:#C7B89C;}
	.st1{fill:#002E59;}
	.st2{fill:none;}
	.st3{font-family:'Semringah';}
	.st4{font-size:70px;}
</style>
<g>
	<polygon class="st0" points="480.6,136.9 347.5,136.9 335.1,136.9 347.5,143.6 347.5,253.3 414.1,294.8 480.6,253.3 480.6,143.5 
		493,136.9 	"/>
	<rect x="309.3" y="135.2" class="st1" width="5" height="10"/>
	<rect x="513.8" y="135.2" class="st1" width="5" height="10"/>
	<g>
		<polygon class="st1" points="331.3,136.9 317.7,136.9 317.7,143.5 343.8,143.5 		"/>
		<polygon class="st1" points="496.6,136.9 484.1,143.5 510.4,143.5 510.4,136.9 		"/>
	</g>
	<rect x="354.5" y="136.9" class="st1" width="1.9" height="116.4"/>
	<rect x="471.8" y="136.9" class="st1" width="1.9" height="116.4"/>
</g>
<rect x="371.8" y="181.5" class="st2" width="84.5" height="67"/>
<text transform="matrix(1 0 0 1 371.8014 244.5007)" class="st1 st3 st4">MV</text>
</svg>
