<?xml version="1.0" encoding="utf-8"?>
<!-- Generator: Adobe Illustrator 21.0.2, SVG Export Plug-In . SVG Version: 6.00 Build 0)  -->
<svg version="1.0" id="Capa_1" xmlns="http://www.w3.org/2000/svg" xmlns:xlink="http://www.w3.org/1999/xlink" x="0px" y="0px"
	 viewBox="0 0 250 250" style="enable-background:new 0 0 250 250;" xml:space="preserve">
<style type="text/css">
	.st0{fill:#B4A895;}
	.st1{fill:#C6B69B;}
	.st2{fill:#012D5B;}
	.st3{fill:none;}
	.st4{font-family:'Humanist777BT-RomanCondensedB';}
	.st5{font-size:84px;}
</style>
<polygon class="st0" points="190,36.3 30.4,36.3 15.5,36.3 30.4,44.3 30.4,176 110.2,225.8 190,176 190,44.3 205,36.3 "/>
<polygon class="st1" points="204.8,36.3 45.2,36.3 30.2,36.3 45.2,44.3 45.2,176 125,225.8 204.8,176 204.8,44.3 219.8,36.3 "/>
<rect x="-0.7" y="34.3" class="st2" width="6" height="12"/>
<rect x="244.7" y="34.3" class="st2" width="6" height="12"/>
<polygon class="st2" points="25.7,36.3 9.4,36.3 9.4,44.3 40.7,44.3 "/>
<polygon class="st2" points="224,36.3 209.1,44.3 240.6,44.3 240.6,36.3 "/>
<rect x="53.6" y="36.3" class="st2" width="2.3" height="139.7"/>
<rect x="194.3" y="36.3" class="st2" width="2.3" height="139.7"/>
<rect x="60.3" y="81.2" class="st3" width="114.2" height="69"/>
<text transform="matrix(1 0 0 1 60.3084 143.8549)" class="st2 st4 st5">MV</text>
</svg>
